<?xml version="1.0" encoding="utf-8"?>
<!-- Generator: Adobe Illustrator 16.0.0, SVG Export Plug-In . SVG Version: 6.00 Build 0)  -->
<!DOCTYPE svg PUBLIC "-//W3C//DTD SVG 1.1//EN" "http://www.w3.org/Graphics/SVG/1.1/DTD/svg11.dtd">
<svg version="1.1" id="Visible" xmlns="http://www.w3.org/2000/svg" xmlns:xlink="http://www.w3.org/1999/xlink" x="0px" y="0px"
	 width="1224px" height="792px" viewBox="0 0 1224 792" enable-background="new 0 0 1224 792" xml:space="preserve">
<g id="LINE_11_">
	<g>
		
			<path fill="none" stroke="#000000" stroke-width="1.1339" stroke-linecap="round" stroke-linejoin="round" stroke-miterlimit="10" d="
			M651.958,354.284h-36.736v-1.899c0-1.237-1.003-2.24-2.24-2.24h-3.798c-1.237,0-2.239,1.003-2.239,2.24v1.899h-33.902
			c-2.803,0-5.074,2.272-5.074,5.074v75.118c0,1.236,1.002,2.239,2.239,2.239h36.737v1.899c0,1.236,1.002,2.239,2.239,2.239h3.798
			c1.237,0,2.24-1.003,2.24-2.239v-1.899h39.571c1.236,0,2.239-1.003,2.239-2.239v-75.118
			C657.032,356.556,654.761,354.284,651.958,354.284z"/>
	</g>
</g>
<g id="LINE_1_">
	<g>
		
			<path fill="none" stroke="#000000" stroke-width="1.1339" stroke-linecap="round" stroke-linejoin="round" stroke-miterlimit="10" d="
			M651.958,474h-36.736v-1.899c0-1.236-1.003-2.239-2.24-2.239h-3.798c-1.237,0-2.239,1.003-2.239,2.239V474h-33.902
			c-2.803,0-5.074,2.272-5.074,5.074v75.118c0,1.236,1.002,2.239,2.239,2.239h36.737v1.899c0,1.236,1.002,2.239,2.239,2.239h3.798
			c1.237,0,2.24-1.003,2.24-2.239v-1.899h39.571c1.236,0,2.239-1.003,2.239-2.239v-75.118C657.032,476.272,654.761,474,651.958,474z
			"/>
	</g>
</g>
<g id="LINE_2_">
	<g>
		
			<path fill="none" stroke="#000000" stroke-width="1.1339" stroke-linecap="round" stroke-linejoin="round" stroke-miterlimit="10" d="
			M783.958,354.784h-36.736v-1.899c0-1.236-1.003-2.239-2.24-2.239h-3.798c-1.236,0-2.239,1.003-2.239,2.239v1.899h-33.902
			c-2.803,0-5.074,2.272-5.074,5.074v75.118c0,1.236,1.003,2.239,2.239,2.239h36.737v1.899c0,1.236,1.003,2.239,2.239,2.239h3.798
			c1.237,0,2.24-1.003,2.24-2.239v-1.899h39.571c1.236,0,2.239-1.003,2.239-2.239v-75.118
			C789.032,357.057,786.761,354.784,783.958,354.784z"/>
	</g>
</g>
<g id="LINE_3_">
	<g>
		
			<path fill="none" stroke="#000000" stroke-width="1.1339" stroke-linecap="round" stroke-linejoin="round" stroke-miterlimit="10" d="
			M783.958,474h-36.736v-1.899c0-1.236-1.003-2.239-2.24-2.239h-3.798c-1.236,0-2.239,1.003-2.239,2.239V474h-33.902
			c-2.803,0-5.074,2.272-5.074,5.074v75.118c0,1.236,1.003,2.239,2.239,2.239h36.737v1.899c0,1.236,1.003,2.239,2.239,2.239h3.798
			c1.237,0,2.24-1.003,2.24-2.239v-1.899h39.571c1.236,0,2.239-1.003,2.239-2.239v-75.118C789.032,476.272,786.761,474,783.958,474z
			"/>
	</g>
</g>
</svg>
