<?xml version="1.0" encoding="utf-8"?>
<!-- Generator: Adobe Illustrator 16.0.0, SVG Export Plug-In . SVG Version: 6.00 Build 0)  -->
<!DOCTYPE svg PUBLIC "-//W3C//DTD SVG 1.1//EN" "http://www.w3.org/Graphics/SVG/1.1/DTD/svg11.dtd">
<svg version="1.1" xmlns="http://www.w3.org/2000/svg" xmlns:xlink="http://www.w3.org/1999/xlink" x="0px" y="0px" width="1224px"
	 height="792px" viewBox="0 0 1224 792" enable-background="new 0 0 1224 792" xml:space="preserve">
<g id="Visible">
	<g id="LINE_1_">
		<g>
			<path stroke="#000000" stroke-width="0.1" stroke-miterlimit="10" d="M616.139,348.449h-8.276c-1.213,0-2.197,0.983-2.197,2.197
				c0,1.213,0.983,2.196,2.197,2.196h8.276c1.213,0,2.197-0.983,2.197-2.196C618.336,349.433,617.352,348.449,616.139,348.449z"/>
		</g>
	</g>
	<g id="LINE_3_">
		<g>
			<path stroke="#000000" stroke-width="0.1" stroke-miterlimit="10" d="M657.354,389.665c-1.214,0-2.196,0.983-2.196,2.197v8.276
				c0,1.213,0.982,2.196,2.196,2.196s2.196-0.983,2.196-2.196v-8.276C659.551,390.648,658.567,389.665,657.354,389.665z"/>
		</g>
	</g>
	<g id="LINE_5_">
		<g>
			<path stroke="#000000" stroke-width="0.1" stroke-miterlimit="10" d="M566.646,389.665c-1.214,0-2.197,0.983-2.197,2.197v8.276
				c0,1.213,0.983,2.196,2.197,2.196c1.213,0,2.196-0.983,2.196-2.196v-8.276C568.843,390.648,567.859,389.665,566.646,389.665z"/>
		</g>
	</g>
	<g id="ARC_7_">
		<g>
			<path stroke="#000000" stroke-width="0.1" stroke-miterlimit="10" d="M616.139,439.157h-8.276c-1.213,0-2.197,0.982-2.197,2.196
				s0.983,2.196,2.197,2.196h8.276c1.213,0,2.197-0.982,2.197-2.196C618.336,440.141,617.352,439.157,616.139,439.157z"/>
		</g>
	</g>
</g>
<g id="Layer_3">
	<g>
		<g>
			
				<rect x="555.307" y="339.307" fill="none" stroke="#000000" stroke-linecap="round" stroke-linejoin="round" stroke-miterlimit="10" width="113.387" height="113.387"/>
		</g>
	</g>
</g>
</svg>
